<?xml version="1.0" encoding="UTF-8" standalone="no"?>
<svg
   version="1.0"
   width="64.000000pt"
   height="64.000000pt"
   viewBox="0 0 64.000000 64.000000"
   preserveAspectRatio="xMidYMid meet"
   id="svg12"
   sodipodi:docname="update2.svg"
   inkscape:version="1.4.3 (0d15f75042, 2025-12-25)"
   xmlns:inkscape="http://www.inkscape.org/namespaces/inkscape"
   xmlns:sodipodi="http://sodipodi.sourceforge.net/DTD/sodipodi-0.dtd"
   xmlns="http://www.w3.org/2000/svg"
   xmlns:svg="http://www.w3.org/2000/svg">
  <defs
     id="defs12" />
  <sodipodi:namedview
     id="namedview12"
     pagecolor="#ffffff"
     bordercolor="#000000"
     borderopacity="0.25"
     inkscape:showpageshadow="2"
     inkscape:pageopacity="0.0"
     inkscape:pagecheckerboard="0"
     inkscape:deskcolor="#d1d1d1"
     inkscape:document-units="pt"
     inkscape:zoom="8.9296875"
     inkscape:cx="42.610674"
     inkscape:cy="42.666667"
     inkscape:window-width="1707"
     inkscape:window-height="940"
     inkscape:window-x="0"
     inkscape:window-y="0"
     inkscape:window-maximized="0"
     inkscape:current-layer="svg12" />
  <g
     transform="translate(0.000000,64.000000) scale(0.100000,-0.100000)"
     stroke="none"
     id="g12">
    <!-- Gear (lavender fill + purple outline like PNG) -->
    <path
       d="m 283,608 c -5,-7 -13,-21 -16,-30 -8,-23 -77,-52 -91,-38 -16,16 -41,12 -64,-13 C 88,502 84,480 100,464 116,448 84,383 53,368 30,357 25,348 25,320 c 0,-28 5,-37 28,-48 31,-15 63,-80 47,-96 -17,-17 -11,-41 15,-66 22,-21 30,-23 53,-14 36,14 82,-5 103,-43 12,-22 23,-28 50,-28 27,0 36,5 47,28 15,31 80,63 96,47 16,-16 41,-12 64,13 24,25 28,47 12,63 -16,16 16,81 47,96 23,11 28,20 28,48 0,28 -5,37 -28,48 -31,15 -63,80 -47,96 17,17 11,41 -15,66 -22,21 -30,23 -53,14 -36,-14 -82,5 -103,43 -17,31 -68,44 -86,21 z m 79,-30 c 2,-15 16,-29 42,-41 32,-16 43,-16 68,-6 26,11 32,10 50,-9 19,-18 20,-24 9,-50 -10,-25 -10,-36 6,-68 12,-26 26,-40 41,-42 18,-3 22,-10 22,-42 0,-32 -4,-39 -22,-42 -15,-2 -29,-16 -41,-42 -16,-32 -16,-43 -6,-68 11,-26 10,-32 -9,-50 -18,-19 -24,-20 -50,-9 -25,10 -36,10 -68,-6 C 378,91 364,77 362,62 359,44 352,40 320,40 c -32,0 -39,4 -42,22 -2,15 -16,29 -42,41 -32,16 -43,16 -68,6 -26,-11 -32,-10 -50,9 -19,18 -20,24 -9,50 10,25 10,36 -6,68 -12,26 -26,40 -41,42 -18,3 -22,10 -22,42 0,32 4,39 22,42 15,2 29,16 41,42 16,32 16,43 6,68 -11,26 -10,32 9,50 18,19 24,20 50,9 25,-10 36,-10 68,6 26,12 40,26 42,41 3,18 10,22 42,22 32,0 39,-4 42,-22 z"
       fill="#c2cbe6"
       stroke="#8d6d9f"
       stroke-width="18"
       stroke-linejoin="round"
       id="path1"
       style="display:inline;fill:#d3dded;fill-opacity:1"
       inkscape:label="path1" />
    <!-- Small decorative marks (purple) -->
    <path
       d="m 260,511 c 0,-5 5,-13 10,-16 6,-3 10,-2 10,4 0,5 -4,13 -10,16 -5,3 -10,2 -10,-4 z"
       fill="#8d6d9f"
       id="path2"
       style="display:inline" />
    <path
       d="m 310,510 c 0,-5 5,-10 10,-10 6,0 10,5 10,10 0,6 -4,10 -10,10 -5,0 -10,-4 -10,-10 z"
       fill="#8d6d9f"
       id="path3"
       style="display:inline" />
    <path
       d="m 367,513 c -4,-3 -7,-11 -7,-17 0,-6 5,-5 12,2 6,6 9,14 7,17 -3,3 -9,2 -12,-2 z"
       fill="#8d6d9f"
       id="path4"
       style="display:inline" />
    <path
       d="m 216,485 c 4,-8 10,-15 15,-15 4,0 6,7 3,15 -4,8 -10,15 -15,15 -4,0 -6,-7 -3,-15 z"
       fill="#8d6d9f"
       id="path5"
       style="display:inline" />
    <path
       d="m 406,485 c -3,-8 -1,-15 3,-15 5,0 11,7 15,15 3,8 1,15 -3,15 -5,0 -11,-7 -15,-15 z"
       fill="#8d6d9f"
       id="path6"
       style="display:inline" />
    <!-- Center arrow/check (green like PNG) -->
    <path
       d="m 287,454 c -4,-4 -7,-39 -7,-77 0,-62 -2,-68 -16,-57 -13,11 -19,10 -37,-8 l -22,-22 58,-57 57,-58 57,58 58,57 -22,22 c -18,17 -25,19 -37,9 -13,-11 -15,-3 -18,61 l -3,73 -30,3 c -17,2 -34,0 -38,-4 z m 53,-89 c 0,-41 3,-75 7,-75 3,0 15,8 25,17 17,16 20,16 36,0 16,-16 13,-20 -36,-69 l -52,-53 -52,53 c -49,49 -52,53 -36,69 16,16 19,16 36,0 10,-9 22,-17 25,-17 4,0 7,34 7,75 0,68 2,75 20,75 18,0 20,-7 20,-75 z"
       fill="#72caaf"
       stroke="#5dba9e"
       stroke-width="10"
       stroke-linejoin="round"
       id="path7"
       style="display:inline" />
    <!-- Bottom decorative marks (purple) -->
    <path
       d="m 216,155 c -3,-8 -1,-15 3,-15 5,0 11,7 15,15 3,8 1,15 -3,15 -5,0 -11,-7 -15,-15 z"
       fill="#8d6d9f"
       id="path8"
       style="display:inline" />
    <path
       d="M406 155 c4 -8 10 -15 15 -15 4 0 6 7 3 15 -4 8 -10 15 -15 15 -4 0               -6 -7 -3 -15z"
       fill="#8D6D9F"
       id="path9" />
    <path
       d="M267 143 c-4 -3 -7 -11 -7 -17 0 -6 5 -5 12 2 6 6 9 14 7 17 -3 3 -9               2 -12 -2z"
       fill="#8D6D9F"
       id="path10" />
    <path
       d="m 360,141 c 0,-5 5,-13 10,-16 6,-3 10,-2 10,4 0,5 -4,13 -10,16 -5,3 -10,2 -10,-4 z"
       fill="#8d6d9f"
       id="path11"
       style="display:inline" />
    <path
       d="m 310,130 c 0,-5 5,-10 10,-10 6,0 10,5 10,10 0,6 -4,10 -10,10 -5,0 -10,-4 -10,-10 z"
       fill="#8d6d9f"
       id="path12"
       style="display:inline" />
  </g>
  <g
     inkscape:groupmode="layer"
     id="layer1"
     inkscape:label="Layer 1"
     style="display:inline" />
  <path
     style="display:inline;opacity:0.923484;fill:#d3dded;fill-opacity:1;stroke:#ffffff;stroke-width:0.111986"
     d="m 40.631121,78.659694 c -1.164037,-0.10382 -1.73511,-0.300275 -1.976931,-0.680086 -0.09151,-0.143727 -0.253697,-0.664472 -0.360419,-1.157211 -0.24874,-1.148439 -0.561266,-1.844994 -1.216323,-2.710927 -1.021408,-1.350218 -2.504394,-2.402828 -5.266927,-3.738417 -4.458169,-2.15537 -6.008633,-2.241104 -10.316651,-0.570467 -1.85708,0.720171 -2.413713,0.804551 -3.076578,0.466383 -0.636205,-0.324568 -3.029194,-2.718358 -3.354096,-3.355218 -0.342471,-0.671299 -0.266197,-1.181929 0.453961,-3.039124 0.733459,-1.891496 0.978777,-2.729754 1.120619,-3.829179 0.22301,-1.728555 -0.209789,-3.468654 -1.565673,-6.294904 C 13.693588,50.877122 12.573931,49.278648 11.224995,48.25824 10.341316,47.589777 9.6539289,47.284377 8.4549431,47.027528 6.7875432,46.670335 6.6237173,46.280202 6.6237173,42.666667 c 0,-3.613536 0.1638259,-4.003669 1.8312258,-4.360862 1.1989858,-0.256849 1.8863729,-0.562249 2.7700519,-1.230711 1.348936,-1.020409 2.468593,-2.618883 3.847108,-5.492305 1.355884,-2.82625 1.788683,-4.566349 1.565673,-6.294904 -0.141842,-1.099425 -0.38716,-1.937683 -1.120619,-3.829179 -0.720158,-1.857195 -0.796432,-2.367825 -0.453961,-3.039124 0.325486,-0.638003 2.718383,-3.0309 3.356386,-3.356386 0.671299,-0.342471 1.181929,-0.266197 3.039124,0.453961 1.891496,0.733459 2.729754,0.978777 3.829179,1.120619 1.728555,0.22301 3.468654,-0.209789 6.294904,-1.565673 2.873422,-1.378515 4.471896,-2.498172 5.492305,-3.847108 0.668462,-0.883679 0.973862,-1.5710661 1.230711,-2.7700519 0.357617,-1.6693813 0.752754,-1.8354261 4.360862,-1.8325231 3.615393,0.00291 4.003891,0.166164 4.360861,1.8325231 0.256849,1.1989858 0.562249,1.8863729 1.230712,2.7700519 1.019324,1.347503 2.627262,2.474443 5.471695,3.834898 2.862668,1.369175 4.589377,1.80058 6.315513,1.577883 1.099425,-0.141842 1.937683,-0.38716 3.829179,-1.120619 1.857195,-0.720158 2.367825,-0.796432 3.039124,-0.453961 0.63686,0.324902 3.03065,2.717891 3.355218,3.354096 0.344466,0.67521 0.254932,1.214235 -0.548316,3.301053 -1.589764,4.130158 -1.478823,5.723216 0.710163,10.197665 1.349681,2.758846 2.342148,4.148739 3.691275,5.169421 0.855419,0.647167 1.555265,0.960336 2.700306,1.20834 1.073827,0.232579 1.366374,0.401965 1.580871,0.915329 0.270884,0.648316 0.417602,3.26613 0.280543,5.005531 -0.119956,1.52234 -0.272057,2.131157 -0.600467,2.4035 -0.09546,0.07917 -0.664082,0.2654 -1.263593,0.413851 -1.358492,0.33639 -2.03349,0.663422 -2.978215,1.442925 -1.154136,0.952291 -2.090947,2.294443 -3.293436,4.718444 -2.343729,4.72454 -2.450515,6.249478 -0.745514,10.646113 0.720171,1.857079 0.804551,2.413712 0.466383,3.076578 -0.323985,0.635061 -2.717866,3.028942 -3.352927,3.352927 -0.662866,0.338168 -1.219499,0.253788 -3.076578,-0.466383 -4.399357,-1.706057 -5.890332,-1.601104 -10.646113,0.749413 -2.42433,1.19821 -3.762816,2.131356 -4.718444,3.289537 -0.779503,0.944725 -1.106535,1.619723 -1.442925,2.978215 -0.298207,1.204291 -0.392793,1.368195 -0.9157,1.586774 -0.747666,0.312531 -3.430985,0.43638 -5.485161,0.253169 z m 2.648107,-9.427631 c 0.488338,-0.247101 0.814354,-0.853853 0.754129,-1.403516 -0.172604,-1.575328 -2.428556,-1.619411 -2.722379,-0.0532 -0.196104,1.045318 1.012915,1.940119 1.96825,1.456713 z M 35.702123,68.80631 c 0.616376,-0.40827 1.115079,-1.008493 1.43064,-1.721872 0.301694,-0.682027 0.250608,-1.079113 -0.164299,-1.277096 -0.984565,-0.469811 -2.311048,1.003923 -2.309351,2.565711 5.42e-4,0.498504 0.142797,0.778303 0.395704,0.778303 0.06951,0 0.360797,-0.155271 0.647306,-0.345046 z M 50.539283,68.793 c 0.263618,-0.263619 0.157824,-1.220904 -0.204809,-1.853224 -0.543959,-0.948499 -1.646722,-1.479006 -2.17061,-1.044217 -0.382794,0.317691 -0.161801,1.395515 0.450811,2.198693 0.517239,0.678133 1.564869,1.058486 1.924608,0.698748 z M 30.182992,66.170304 c 1.03021,-0.96364 1.546772,-2.562789 1.054753,-3.265246 -0.362909,-0.518125 -1.206094,-0.18278 -1.892889,0.752823 -0.546305,0.744215 -0.739756,1.255744 -0.748395,1.978921 -0.01405,1.176387 0.65773,1.402288 1.586531,0.533502 z m 26.333125,0.332024 c 0.259609,-0.234943 0.280975,-1.31932 0.03748,-1.902092 -0.602675,-1.442404 -1.973077,-2.38751 -2.458006,-1.695178 -0.492019,0.702457 0.02454,2.301606 1.054753,3.265246 0.599722,0.56097 1.004154,0.659288 1.365776,0.332024 z M 50.869641,54.756552 c 5.834922,-5.831407 7.867017,-7.92851 7.867017,-8.118689 0,-0.287647 -2.145743,-2.534573 -3.863517,-4.045701 -2.064547,-1.816184 -3.241164,-2.0078 -4.94684,-0.80561 l -0.691372,0.487291 -0.116143,-0.363519 c -0.313201,-0.980286 -0.49371,-3.484708 -0.816467,-11.327817 -0.217684,-5.289809 -0.27878,-6.180692 -0.437287,-6.37644 -0.161867,-0.199899 -0.48199,-0.25814 -2.635314,-0.47946 -3.883524,-0.399149 -5.749989,-0.33331 -6.946974,0.24505 -0.629561,0.304193 -0.83407,0.609233 -1.047779,1.562851 -0.363003,1.619792 -0.661058,7.065834 -0.671016,12.260768 -0.0043,2.240369 -0.140196,4.237981 -0.308622,4.536415 -0.06274,0.111168 -0.253011,0.01995 -0.755764,-0.362307 -0.918325,-0.698233 -1.447497,-0.921123 -2.193838,-0.924055 -1.156916,-0.0045 -1.742781,0.39814 -4.386954,3.015305 -1.724046,1.706435 -2.324906,2.369728 -2.323709,2.565152 0.0012,0.198685 1.938596,2.200354 7.86863,8.129739 4.326859,4.326387 7.942607,7.89169 8.034996,7.922897 0.09239,0.03121 0.243569,0.03056 0.335958,-0.0014 0.09239,-0.03199 3.708136,-3.59619 8.034995,-7.920443 z M 31.237745,22.428275 c 0.492019,-0.702456 -0.02454,-2.301605 -1.054753,-3.265246 -0.928801,-0.868785 -1.600582,-0.642885 -1.586531,0.533502 0.0085,0.70901 0.192728,1.209868 0.711892,1.935087 0.687351,0.960159 1.561932,1.321279 1.929392,0.796657 z m 23.980947,0.01899 c 0.419109,-0.259024 1.083229,-1.11183 1.334902,-1.714168 0.230568,-0.551827 0.220351,-1.619238 -0.01802,-1.882634 -0.325123,-0.359258 -0.775687,-0.257593 -1.385233,0.312566 -0.726593,0.679644 -1.229081,1.678517 -1.229081,2.443239 0,1.011198 0.498845,1.33455 1.297432,0.840997 z M 48.86298,19.607329 c 0.449096,-0.232237 1.343014,-1.230092 1.590637,-1.775583 0.417435,-0.919579 0.213516,-1.425797 -0.574354,-1.425797 -0.919685,0 -1.893261,1.374646 -1.893261,2.673201 0,0.295386 0.0336,0.570661 0.07466,0.611722 0.122163,0.122163 0.475721,0.08535 0.802321,-0.08354 z M 37.245531,19.361307 c 0.220244,-0.265378 0.06629,-1.316961 -0.266402,-1.819697 -0.600568,-0.90752 -1.696156,-1.40701 -2.131428,-0.971738 -0.439148,0.439147 -0.05918,1.741142 0.725852,2.487166 0.568056,0.539834 1.357278,0.683457 1.671978,0.304269 z m 6.261031,-0.930364 c 0.711598,-0.50203 0.691954,-1.804356 -0.0341,-2.260555 -0.540599,-0.339674 -1.33208,-0.241724 -1.796079,0.222276 -0.300544,0.300543 -0.353551,0.435824 -0.353551,0.902305 0,0.42981 0.06068,0.614488 0.279965,0.852019 0.566583,0.613738 1.284527,0.720822 1.903762,0.283955 z"
     id="path13"
     transform="scale(0.75)" />
  <path
     style="opacity:0.923484;fill:#97e0bb;stroke:#ffffff;stroke-width:0.111986;fill-opacity:1"
     d="m 37.374354,54.226801 c -5.207242,-5.314088 -6.202026,-6.40155 -6.638335,-7.256787 -0.312896,-0.613326 -0.276261,-0.879717 0.200114,-1.455111 0.53999,-0.652233 1.877683,-1.8641 2.154696,-1.95202 0.301888,-0.09582 0.776396,0.17921 1.696046,0.983029 2.537873,2.218225 3.905175,3.043014 4.58286,2.764493 0.545986,-0.224394 0.792584,-0.944584 0.995701,-2.907955 0.0669,-0.646719 0.146941,-1.377428 0.177858,-1.623797 0.03092,-0.24637 0.104565,-3.11881 0.163662,-6.383202 0.107905,-5.960459 0.183519,-7.153777 0.516922,-8.157984 0.208887,-0.629166 0.592317,-0.85689 1.442789,-0.85689 1.709867,0 1.812771,0.470297 1.960265,8.958881 0.05512,3.172003 0.15376,6.372003 0.21921,7.111111 0.145239,1.64015 0.407573,3.025511 0.650926,3.437474 0.602503,1.019956 1.867605,0.425176 5.133293,-2.413382 0.932237,-0.810309 1.291817,-1.013446 1.613309,-0.911408 0.283136,0.08986 1.584241,1.261775 2.117983,1.907675 0.512266,0.619913 0.552574,0.877888 0.234567,1.501234 -0.517693,1.014759 -2.177353,2.781618 -11.074752,11.790072 l -0.854801,0.865471 z"
     id="path14"
     transform="scale(0.75)" />
</svg>
