<?xml version="1.0" encoding="utf-8"?>
<svg version="1.0" width="64.000000pt" height="64.000000pt" viewBox="0 0 64.000000 64.000000" preserveAspectRatio="xMidYMid meet" id="svg12" xmlns="http://www.w3.org/2000/svg">
  <g transform="matrix(0.104182, 0, 0, -0.104182, -1.235934, 65.543488)" stroke="none" id="g12" style="">
    <path d="m 283,608 c -5,-7 -13,-21 -16,-30 -8,-23 -77,-52 -91,-38 -16,16 -41,12 -64,-13 C 88,502 84,480 100,464 116,448 84,383 53,368 30,357 25,348 25,320 c 0,-28 5,-37 28,-48 31,-15 63,-80 47,-96 -17,-17 -11,-41 15,-66 22,-21 30,-23 53,-14 36,14 82,-5 103,-43 12,-22 23,-28 50,-28 27,0 36,5 47,28 15,31 80,63 96,47 16,-16 41,-12 64,13 24,25 28,47 12,63 -16,16 16,81 47,96 23,11 28,20 28,48 0,28 -5,37 -28,48 -31,15 -63,80 -47,96 17,17 11,41 -15,66 -22,21 -30,23 -53,14 -36,-14 -82,5 -103,43 -17,31 -68,44 -86,21 z m 79,-30 c 2,-15 16,-29 42,-41 32,-16 43,-16 68,-6 26,11 32,10 50,-9 19,-18 20,-24 9,-50 -10,-25 -10,-36 6,-68 12,-26 26,-40 41,-42 18,-3 22,-10 22,-42 0,-32 -4,-39 -22,-42 -15,-2 -29,-16 -41,-42 -16,-32 -16,-43 -6,-68 11,-26 10,-32 -9,-50 -18,-19 -24,-20 -50,-9 -25,10 -36,10 -68,-6 C 378,91 364,77 362,62 359,44 352,40 320,40 c -32,0 -39,4 -42,22 -2,15 -16,29 -42,41 -32,16 -43,16 -68,6 -26,-11 -32,-10 -50,9 -19,18 -20,24 -9,50 10,25 10,36 -6,68 -12,26 -26,40 -41,42 -18,3 -22,10 -22,42 0,32 4,39 22,42 15,2 29,16 41,42 16,32 16,43 6,68 -11,26 -10,32 9,50 18,19 24,20 50,9 25,-10 36,-10 68,6 26,12 40,26 42,41 3,18 10,22 42,22 32,0 39,-4 42,-22 z" fill="#c2cbe6" stroke="#8d6d9f" stroke-width="18" stroke-linejoin="round" id="path1" style="display:inline;fill:#d3dded;fill-opacity:1"/>
    <path d="m 260,511 c 0,-5 5,-13 10,-16 6,-3 10,-2 10,4 0,5 -4,13 -10,16 -5,3 -10,2 -10,-4 z" fill="#8d6d9f" id="path2" style="display:inline"/>
    <path d="m 310,510 c 0,-5 5,-10 10,-10 6,0 10,5 10,10 0,6 -4,10 -10,10 -5,0 -10,-4 -10,-10 z" fill="#8d6d9f" id="path3" style="display:inline"/>
    <path d="m 367,513 c -4,-3 -7,-11 -7,-17 0,-6 5,-5 12,2 6,6 9,14 7,17 -3,3 -9,2 -12,-2 z" fill="#8d6d9f" id="path4" style="display:inline"/>
    <path d="m 216,485 c 4,-8 10,-15 15,-15 4,0 6,7 3,15 -4,8 -10,15 -15,15 -4,0 -6,-7 -3,-15 z" fill="#8d6d9f" id="path5" style="display:inline"/>
    <path d="m 406,485 c -3,-8 -1,-15 3,-15 5,0 11,7 15,15 3,8 1,15 -3,15 -5,0 -11,-7 -15,-15 z" fill="#8d6d9f" id="path6" style="display:inline"/>
    <path d="m 287,454 c -4,-4 -7,-39 -7,-77 0,-62 -2,-68 -16,-57 -13,11 -19,10 -37,-8 l -22,-22 58,-57 57,-58 57,58 58,57 -22,22 c -18,17 -25,19 -37,9 -13,-11 -15,-3 -18,61 l -3,73 -30,3 c -17,2 -34,0 -38,-4 z m 53,-89 c 0,-41 3,-75 7,-75 3,0 15,8 25,17 17,16 20,16 36,0 16,-16 13,-20 -36,-69 l -52,-53 -52,53 c -49,49 -52,53 -36,69 16,16 19,16 36,0 10,-9 22,-17 25,-17 4,0 7,34 7,75 0,68 2,75 20,75 18,0 20,-7 20,-75 z" fill="#72caaf" stroke="#5dba9e" stroke-width="10" stroke-linejoin="round" id="path7" style="display:inline"/>
    <path d="m 216,155 c -3,-8 -1,-15 3,-15 5,0 11,7 15,15 3,8 1,15 -3,15 -5,0 -11,-7 -15,-15 z" fill="#8d6d9f" id="path8" style="display:inline"/>
    <path d="M406 155 c4 -8 10 -15 15 -15 4 0 6 7 3 15 -4 8 -10 15 -15 15 -4 0               -6 -7 -3 -15z" fill="#8D6D9F" id="path9"/>
    <path d="M267 143 c-4 -3 -7 -11 -7 -17 0 -6 5 -5 12 2 6 6 9 14 7 17 -3 3 -9               2 -12 -2z" fill="#8D6D9F" id="path10"/>
    <path d="m 360,141 c 0,-5 5,-13 10,-16 6,-3 10,-2 10,4 0,5 -4,13 -10,16 -5,3 -10,2 -10,-4 z" fill="#8d6d9f" id="path11" style="display:inline"/>
    <path d="m 310,130 c 0,-5 5,-10 10,-10 6,0 10,5 10,10 0,6 -4,10 -10,10 -5,0 -10,-4 -10,-10 z" fill="#8d6d9f" id="path12" style="display:inline"/>
  </g>
  <g id="layer1" style="display: inline;" transform="matrix(1.04182, 0, 0, 1.04182, -1.235934, -1.132993)"/>
  <path style="display: inline; opacity: 0.923484; fill: rgb(211, 221, 237); fill-opacity: 1; stroke: rgb(255, 255, 255); stroke-width: 0.111986;" d="M 30.511 60.329 C 29.602 60.248 29.156 60.094 28.967 59.797 C 28.895 59.686 28.769 59.278 28.685 58.893 C 28.491 57.996 28.247 57.452 27.735 56.775 C 26.937 55.72 25.778 54.897 23.62 53.854 C 20.136 52.17 18.925 52.103 15.559 53.408 C 14.107 53.971 13.672 54.037 13.155 53.773 C 12.657 53.519 10.788 51.649 10.534 51.151 C 10.266 50.626 10.325 50.228 10.888 48.777 C 11.461 47.299 11.653 46.643 11.764 45.784 C 11.938 44.434 11.6 43.074 10.541 40.866 C 9.464 38.621 8.589 37.371 7.535 36.574 C 6.845 36.052 6.307 35.814 5.371 35.612 C 4.068 35.333 3.939 35.028 3.939 32.205 C 3.939 29.382 4.068 29.077 5.371 28.798 C 6.307 28.597 6.845 28.358 7.535 27.837 C 8.589 27.039 9.464 25.79 10.541 23.544 C 11.6 21.336 11.938 19.976 11.764 18.626 C 11.653 17.767 11.461 17.112 10.888 15.634 C 10.325 14.183 10.266 13.784 10.534 13.26 C 10.789 12.761 12.658 10.892 13.157 10.637 C 13.681 10.369 14.08 10.428 15.531 10.991 C 17.009 11.564 17.664 11.756 18.523 11.867 C 19.873 12.041 21.233 11.703 23.441 10.644 C 25.687 9.567 26.936 8.692 27.734 7.638 C 28.255 6.948 28.494 6.41 28.695 5.474 C 28.974 4.169 29.283 4.039 32.102 4.041 C 34.927 4.044 35.23 4.171 35.509 5.474 C 35.711 6.41 35.949 6.948 36.471 7.638 C 37.267 8.691 38.524 9.572 40.747 10.634 C 42.983 11.704 44.332 12.041 45.681 11.867 C 46.54 11.756 47.196 11.564 48.674 10.991 C 50.125 10.428 50.523 10.369 51.048 10.637 C 51.546 10.891 53.416 12.76 53.67 13.258 C 53.938 13.785 53.869 14.206 53.242 15.837 C 51.999 19.064 52.086 20.308 53.796 23.805 C 54.851 25.961 55.626 27.047 56.68 27.845 C 57.349 28.35 57.895 28.595 58.79 28.788 C 59.629 28.97 59.858 29.102 60.026 29.504 C 60.237 30.01 60.352 32.055 60.245 33.414 C 60.151 34.605 60.032 35.08 59.776 35.293 C 59.701 35.355 59.256 35.501 58.788 35.616 C 57.727 35.879 57.2 36.135 56.462 36.744 C 55.559 37.488 54.827 38.536 53.888 40.43 C 52.057 44.122 51.973 45.313 53.305 48.748 C 53.868 50.2 53.934 50.635 53.67 51.153 C 53.417 51.649 51.546 53.52 51.05 53.773 C 50.532 54.037 50.097 53.971 48.645 53.408 C 45.208 52.075 44.043 52.158 40.327 53.994 C 38.433 54.93 37.387 55.659 36.641 56.565 C 36.032 57.303 35.776 57.83 35.513 58.891 C 35.28 59.833 35.206 59.961 34.798 60.131 C 34.214 60.375 32.116 60.472 30.511 60.329 Z M 32.58 52.962 C 32.962 52.77 33.217 52.296 33.17 51.866 C 33.036 50.635 31.273 50.6 31.043 51.824 C 30.89 52.641 31.834 53.341 32.58 52.962 Z M 26.66 52.63 C 27.142 52.311 27.531 51.841 27.778 51.285 C 28.013 50.751 27.974 50.441 27.65 50.287 C 26.881 49.919 25.844 51.071 25.846 52.292 C 25.846 52.681 25.957 52.9 26.155 52.9 C 26.209 52.9 26.437 52.778 26.66 52.63 Z M 38.254 52.62 C 38.459 52.413 38.377 51.665 38.094 51.171 C 37.669 50.43 36.807 50.016 36.397 50.355 C 36.098 50.604 36.272 51.446 36.75 52.073 C 37.154 52.604 37.972 52.901 38.254 52.62 Z M 22.348 50.57 C 23.152 49.817 23.556 48.567 23.172 48.019 C 22.889 47.614 22.229 47.876 21.693 48.608 C 21.266 49.188 21.115 49.588 21.109 50.153 C 21.098 51.072 21.622 51.249 22.348 50.57 Z M 42.924 50.83 C 43.127 50.646 43.143 49.799 42.953 49.344 C 42.482 48.216 41.411 47.478 41.033 48.019 C 40.648 48.567 41.052 49.817 41.856 50.57 C 42.326 51.009 42.641 51.085 42.924 50.83 Z M 38.512 41.652 C 43.071 37.095 44.658 35.457 44.658 35.308 C 44.658 35.084 42.982 33.328 41.64 32.147 C 40.027 30.728 39.108 30.578 37.775 31.518 L 37.234 31.898 L 37.143 31.614 C 36.899 30.848 36.758 28.892 36.506 22.763 C 36.336 18.63 36.288 17.933 36.164 17.78 C 36.038 17.624 35.787 17.579 34.105 17.406 C 31.07 17.095 29.612 17.146 28.677 17.598 C 28.185 17.836 28.026 18.073 27.858 18.818 C 27.575 20.084 27.342 24.34 27.334 28.399 C 27.331 30.149 27.224 31.71 27.092 31.943 C 27.044 32.03 26.895 31.96 26.502 31.661 C 25.784 31.115 25.372 30.941 24.788 30.939 C 23.883 30.935 23.426 31.25 21.36 33.295 C 20.013 34.628 19.544 35.146 19.544 35.299 C 19.545 35.454 21.059 37.018 25.693 41.651 C 29.074 45.031 31.899 47.817 31.971 47.841 C 32.043 47.867 32.162 47.865 32.233 47.84 C 32.306 47.815 35.131 45.03 38.512 41.652 Z M 23.172 16.392 C 23.556 15.843 23.152 14.594 22.348 13.841 C 21.622 13.161 21.098 13.338 21.109 14.257 C 21.115 14.811 21.259 15.203 21.664 15.769 C 22.202 16.52 22.885 16.802 23.172 16.392 Z M 41.91 16.406 C 42.237 16.204 42.757 15.538 42.953 15.067 C 43.133 14.636 43.125 13.802 42.939 13.596 C 42.685 13.315 42.333 13.395 41.856 13.841 C 41.289 14.371 40.896 15.152 40.896 15.75 C 40.896 16.54 41.286 16.793 41.91 16.406 Z M 36.944 14.188 C 37.294 14.006 37.993 13.226 38.187 12.801 C 38.513 12.082 38.354 11.686 37.737 11.686 C 37.02 11.686 36.258 12.76 36.258 13.775 C 36.258 14.006 36.285 14.22 36.317 14.252 C 36.412 14.348 36.688 14.32 36.944 14.188 Z M 27.866 13.996 C 28.039 13.788 27.918 12.967 27.658 12.573 C 27.189 11.864 26.333 11.474 25.993 11.814 C 25.649 12.157 25.946 13.174 26.56 13.757 C 27.004 14.179 27.621 14.292 27.866 13.996 Z M 32.759 13.269 C 33.314 12.876 33.299 11.858 32.731 11.502 C 32.31 11.237 31.691 11.313 31.328 11.676 C 31.093 11.911 31.052 12.016 31.052 12.381 C 31.052 12.717 31.099 12.861 31.271 13.046 C 31.714 13.526 32.274 13.61 32.759 13.269 Z" id="path13"/>
  <path style="opacity: 0.923484; fill: rgb(151, 224, 187); stroke: rgb(255, 255, 255); stroke-width: 0.111986; fill-opacity: 1;" d="M 27.967 41.238 C 23.899 37.085 23.121 36.236 22.78 35.568 C 22.535 35.089 22.565 34.88 22.936 34.43 C 23.358 33.921 24.404 32.974 24.62 32.906 C 24.856 32.83 25.227 33.046 25.945 33.673 C 27.928 35.407 28.996 36.051 29.526 35.834 C 29.953 35.659 30.145 35.096 30.304 33.561 C 30.356 33.056 30.419 32.485 30.443 32.293 C 30.467 32.101 30.525 29.856 30.571 27.305 C 30.655 22.647 30.715 21.715 30.975 20.931 C 31.138 20.439 31.438 20.261 32.102 20.261 C 33.438 20.261 33.519 20.629 33.634 27.262 C 33.677 29.739 33.754 32.24 33.805 32.817 C 33.919 34.099 34.124 35.181 34.314 35.504 C 34.784 36.301 35.773 35.836 38.324 33.618 C 39.053 32.985 39.334 32.826 39.585 32.906 C 39.807 32.976 40.823 33.892 41.24 34.396 C 41.641 34.88 41.672 35.083 41.423 35.569 C 41.019 36.362 39.722 37.743 32.77 44.782 L 32.102 45.458 L 27.967 41.238 Z" id="path14"/>
</svg>